<svg width="60" height="58" viewBox="0 0 60 58" fill="none" xmlns="http://www.w3.org/2000/svg">
<path d="M59.8843 31.7716C59.3456 26.353 56.9248 21.2446 53.0677 17.3873C49.7714 14.0911 45.7368 11.9729 41.4915 11.031V8.0535C43.2254 7.62213 44.5142 6.05261 44.5142 4.18707C44.5142 1.99001 42.7269 0.202637 40.5298 0.202637H32.0922C29.8951 0.202637 28.1077 1.99001 28.1077 4.18707C28.1077 6.05249 29.3966 7.62201 31.1304 8.0535V11.0394C26.8981 11.9852 22.8769 14.1005 19.59 17.3874C18.8706 18.1067 18.2074 18.8613 17.6002 19.6455C17.5708 19.6433 17.5414 19.6411 17.5114 19.6411H9.16034C8.51322 19.6411 7.98844 20.1657 7.98844 20.813C7.98844 21.4602 8.51322 21.9849 9.16034 21.9849H16.0056C15.1464 23.4234 14.4535 24.934 13.9262 26.4891H1.17189C0.524774 26.4891 0 27.0138 0 27.661C0 28.3083 0.524774 28.8329 1.17189 28.8329H13.264C12.9262 30.3155 12.7324 31.8243 12.6823 33.3373H7.50012C6.853 33.3373 6.32822 33.862 6.32822 34.5092C6.32822 35.1565 6.853 35.6811 7.50012 35.6811H12.7197C12.8186 37.198 13.0625 38.7069 13.4515 40.1855H5.85947C5.21235 40.1855 4.68757 40.7102 4.68757 41.3574C4.68757 42.0047 5.21235 42.5293 5.85947 42.5293H14.1994C15.349 45.5705 17.1456 48.4209 19.59 50.8652C23.4509 54.7261 28.5645 57.1475 33.9888 57.6834C34.7629 57.7598 35.5377 57.7977 36.3113 57.7977C40.8843 57.7977 45.3991 56.4743 49.2301 53.9795C49.7724 53.6263 49.9258 52.9003 49.5726 52.358C49.2194 51.8156 48.4934 51.6622 47.9511 52.0154C39.5653 57.4761 28.3347 56.2954 21.2472 49.2079C12.9313 40.8919 12.9313 27.3609 21.2472 19.0448C29.5631 10.7289 43.0941 10.7289 51.4103 19.0448C58.4884 26.123 59.6755 37.344 54.2329 45.7257C53.8804 46.2685 54.0347 46.9943 54.5774 47.3467C55.1205 47.6992 55.8461 47.5449 56.1985 47.0021C59.1064 42.5237 60.4154 37.1148 59.8843 31.7716ZM30.4515 4.18719C30.4515 3.28249 31.1875 2.54654 32.0922 2.54654H40.5298C41.4345 2.54654 42.1705 3.28249 42.1705 4.18719C42.1705 5.09189 41.4345 5.82784 40.5298 5.82784H40.3196H32.3023H32.0922C31.1875 5.82784 30.4515 5.09178 30.4515 4.18719ZM33.4742 10.6365V8.17163H39.1477V10.6323C37.2637 10.4082 35.3578 10.4096 33.4742 10.6365Z" fill="#FFED00"/>
<path d="M52.2395 48.864C51.9301 48.864 51.629 48.9894 51.4111 49.2074C51.192 49.4253 51.0676 49.7277 51.0676 50.0359C51.0676 50.3441 51.192 50.6464 51.4111 50.8644C51.629 51.0835 51.9302 51.2078 52.2395 51.2078C52.5477 51.2078 52.8489 51.0835 53.068 50.8644C53.286 50.6464 53.4114 50.3441 53.4114 50.0359C53.4114 49.7277 53.2861 49.4253 53.068 49.2074C52.8489 48.9894 52.5476 48.864 52.2395 48.864Z" fill="#FFED00"/>
<path d="M36.3286 15.9468C26.3045 15.9468 18.1492 24.102 18.1492 34.1262C18.1492 44.1505 26.3045 52.3057 36.3286 52.3057C46.3528 52.3057 54.5081 44.1505 54.5081 34.1262C54.5081 24.102 46.3528 15.9468 36.3286 15.9468ZM36.3286 49.9619C27.5967 49.9619 20.493 42.858 20.493 34.1262C20.493 25.3945 27.5967 18.2906 36.3286 18.2906C45.0605 18.2906 52.1643 25.3945 52.1643 34.1262C52.1643 42.858 45.0605 49.9619 36.3286 49.9619Z" fill="#FFED00"/>
<path d="M43.7416 25.0559L37.9373 30.8601C37.4519 30.6201 36.9059 30.4845 36.3287 30.4845C35.7515 30.4845 35.2056 30.6201 34.7202 30.8601L32.1225 28.2624C31.6647 27.8048 30.9229 27.8048 30.465 28.2624C30.0074 28.72 30.0074 29.4621 30.465 29.9197L33.0628 32.5174C32.8227 33.0028 32.6872 33.5488 32.6872 34.126C32.6872 36.1339 34.3207 37.7675 36.3287 37.7675C38.3368 37.7675 39.9703 36.1339 39.9703 34.126C39.9703 33.5488 39.8347 33.0028 39.5947 32.5174L45.2287 26.8834L45.3989 26.7132C45.8566 26.2555 45.8566 25.5135 45.3989 25.0559C44.9413 24.5982 44.1995 24.5982 43.7416 25.0559ZM36.3287 35.4238C35.6132 35.4238 35.031 34.8416 35.031 34.1261C35.031 33.4105 35.6132 32.8283 36.3287 32.8283C37.0443 32.8283 37.6265 33.4105 37.6265 34.1261C37.6265 34.8416 37.0443 35.4238 36.3287 35.4238Z" fill="#FFED00"/>
<path d="M48.8587 32.9685H47.7729C47.1258 32.9685 46.6011 33.4932 46.6011 34.1404C46.6011 34.7876 47.1258 35.3123 47.7729 35.3123H48.8587C49.5058 35.3123 50.0306 34.7876 50.0306 34.1404C50.0306 33.4932 49.5058 32.9685 48.8587 32.9685Z" fill="#FFED00"/>
<path d="M24.8847 32.9399H23.7991C23.152 32.9399 22.6272 33.4646 22.6272 34.1118C22.6272 34.759 23.152 35.2837 23.7991 35.2837H24.8847C25.5318 35.2837 26.0566 34.759 26.0566 34.1118C26.0566 33.4646 25.5318 32.9399 24.8847 32.9399Z" fill="#FFED00"/>
<path d="M36.343 23.8539C36.9901 23.8539 37.5149 23.3293 37.5149 22.6821V21.5964C37.5149 20.9492 36.9901 20.4246 36.343 20.4246C35.6959 20.4246 35.1711 20.9492 35.1711 21.5964V22.6821C35.1711 23.3293 35.6959 23.8539 36.343 23.8539Z" fill="#FFED00"/>
<path d="M36.3145 44.3984C35.6673 44.3984 35.1426 44.9231 35.1426 45.5703V46.6559C35.1426 47.3032 35.6673 47.8278 36.3145 47.8278C36.9616 47.8278 37.4863 47.3032 37.4863 46.6559V45.5703C37.4863 44.9231 36.9616 44.3984 36.3145 44.3984Z" fill="#FFED00"/>
<path d="M1.17188 40.1851C0.863672 40.1851 0.561328 40.3104 0.343359 40.5284C0.125391 40.7464 0 41.0487 0 41.3569C0 41.6663 0.125273 41.9675 0.343359 42.1855C0.561445 42.4034 0.863672 42.5288 1.17188 42.5288C1.48008 42.5288 1.78242 42.4034 2.00027 42.1855C2.21824 41.9675 2.34375 41.6651 2.34375 41.3569C2.34375 41.0487 2.21836 40.7464 2.00027 40.5284C1.78242 40.3104 1.48008 40.1851 1.17188 40.1851Z" fill="#FFED00"/>
</svg>
