<svg width="54" height="60" viewBox="0 0 54 60" fill="none" xmlns="http://www.w3.org/2000/svg">
<path d="M42.776 42.6168L37.2061 40.7605L35.2065 36.7613C37.0079 34.9277 38.2587 32.5017 38.6804 29.9713L38.9298 28.4766H41.0625C43.001 28.4766 44.5781 26.8995 44.5781 24.9609V17.5781C44.5781 7.88555 36.6926 0 27 0C17.2826 0 9.42188 7.86293 9.42188 17.5781V24.9609C9.42188 26.4886 10.4017 27.7913 11.7656 28.275V29.6484C11.7656 31.587 13.3427 33.1641 15.2812 33.1641H16.3104C16.8184 34.2676 17.4759 35.2897 18.2761 36.2079C18.442 36.3987 18.6151 36.5836 18.7924 36.7635L16.7939 40.7605L11.2239 42.6169C4.7475 44.7764 0.046875 51.5943 0.046875 58.8281C0.046875 59.4754 0.571523 60 1.21875 60H52.7812C53.4284 60 53.9531 59.4754 53.9531 58.8281C53.9531 51.5943 49.2526 44.7764 42.776 42.6168ZM42.2344 24.9609C42.2344 25.6071 41.7087 26.1328 41.0625 26.1328H39.274C39.5719 23.8254 39.7704 21.37 39.8502 18.9516C39.8525 18.8834 39.8544 18.817 39.8565 18.75H42.2344V24.9609ZM12.9375 26.1328C12.2913 26.1328 11.7656 25.6071 11.7656 24.9609V18.75H14.1443C14.1482 18.8722 14.1523 18.995 14.1568 19.1187C14.157 19.1229 14.1572 19.127 14.1573 19.1312C14.1573 19.1316 14.1573 19.1319 14.1573 19.1323C14.2393 21.4845 14.4353 23.8761 14.7264 26.1327H12.9375V26.1328ZM15.2812 30.8203C14.6351 30.8203 14.1094 30.2946 14.1094 29.6484V28.4766H15.0701L15.3195 29.9718C15.367 30.2559 15.4255 30.5391 15.4931 30.8203H15.2812ZM14.1114 16.4062H11.8102C12.4037 8.55223 18.9582 2.34375 27 2.34375C35.006 2.34375 41.5894 8.55141 42.1897 16.4062H39.8888C39.8044 9.93434 34.5341 4.6875 28.0489 4.6875H25.9513C19.4662 4.6875 14.1956 9.93434 14.1114 16.4062ZM25.9512 7.03125H28.0488C33.2999 7.03125 37.5499 11.3263 37.5469 16.5715C37.5469 16.9403 37.5439 17.2614 37.5377 17.5535C37.5377 17.5573 37.5376 17.5611 37.5376 17.565L36.0718 17.3556C32.0898 16.787 28.33 14.9071 25.4849 12.062C25.265 11.8423 24.967 11.7188 24.6562 11.7188C21.5091 11.7188 18.4964 13.1527 16.5049 15.5752C16.9957 10.8034 21.0296 7.03125 25.9512 7.03125ZM17.9227 30.8203C17.336 28.8688 16.6648 23.1266 16.5164 19.4469L18.0936 17.3439C19.5422 15.4131 21.7958 14.2134 24.1931 14.0757C27.3475 17.0776 31.4282 19.06 35.7404 19.6757L37.4657 19.9222C37.3504 22.3697 37.1147 24.8257 36.7771 27.0845C36.777 27.0852 36.7768 27.086 36.7767 27.0868C36.6694 27.813 36.5848 28.2804 36.3687 29.5857C35.748 33.3082 32.9705 36.6744 29.3038 37.5912C27.7948 37.9679 26.205 37.9678 24.6968 37.5912C22.4073 37.0188 20.308 35.4347 18.9532 33.1641H21.3422C21.8259 34.528 23.1285 35.5078 24.6562 35.5078H27C28.9424 35.5078 30.5156 33.9347 30.5156 31.9922C30.5156 30.0537 28.9385 28.4766 27 28.4766H24.6562C23.0945 28.4766 21.8112 29.4853 21.3402 30.8203H17.9227ZM24.5577 39.9628C25.3615 40.1321 26.181 40.2188 27 40.2188C27.6411 40.2188 28.2824 40.1651 28.9164 40.061L26.8457 42.2509L24.5577 39.9628ZM25.2346 43.9546L21.5176 47.8853C20.4943 45.9266 19.6151 43.8881 18.8939 41.8013L20.2897 39.0096L25.2346 43.9546ZM33.5116 38.6126L35.1059 41.8011C34.3835 43.8915 33.504 45.9307 32.4818 47.887L28.5035 43.9087L33.5116 38.6126ZM23.4844 31.9922C23.4844 31.3452 24.0091 30.8203 24.6562 30.8203H27C27.6462 30.8203 28.1719 31.346 28.1719 31.9922C28.1719 32.6393 27.647 33.1641 27 33.1641H24.6562C24.0101 33.1641 23.4844 32.6384 23.4844 31.9922ZM2.4375 57.6562C2.90191 51.8509 6.76547 46.5742 11.9651 44.8403L16.898 43.1964C17.8017 45.6954 18.9213 48.1243 20.2335 50.4315C20.2357 50.4355 20.2378 50.4395 20.24 50.4434C20.24 50.4435 20.2402 50.4435 20.2402 50.4436C21.1989 52.1298 22.2779 53.7776 23.4478 55.3419L24.8895 57.6562H2.4375ZM27 56.6116L25.4107 54.0601C25.3929 54.0315 25.3739 54.0037 25.3538 53.9768C24.4048 52.7109 23.5195 51.3871 22.7133 50.032L26.8925 45.6124L31.2962 50.0161C30.4846 51.381 29.5963 52.7104 28.6465 53.9766C28.5891 54.0531 28.6705 53.9325 27 56.6116ZM29.1105 57.6562L30.5521 55.342C31.7271 53.7717 32.8139 52.1107 33.7822 50.4047C33.7881 50.3944 33.7936 50.3838 33.7995 50.3735C33.8002 50.3722 33.8009 50.3711 33.8016 50.3698C35.0971 48.0846 36.205 45.6768 37.102 43.1964L42.0348 44.8403C47.2345 46.5742 51.0981 51.8509 51.5625 57.6562H29.1105Z" fill="#FFED00"/>
</svg>
